<svg xmlns="http://www.w3.org/2000/svg" xmlns:svg="http://www.w3.org/2000/svg" xmlns:xlink="http://www.w3.org/1999/xlink" version="1.0" height="832pt" width="1421pt" viewBox="1165 -553.0000000000001 1429 838" ><defs><style type="text/css">
            @font-face {
                font-family: 'noto_regular';
                src: url('https://app.creately.com/diagram/assets/fonts/noto/noto-regular.woff') format('woff'),
                     url('https://app.creately.com/diagram/assets/fonts/noto/noto-regular.woff2') format('woff2');
                font-weight: normal;
                font-style: normal;
            }
        p {
            margin: 0;
        }
        </style></defs><defs><style>
            span{ display: inline-block; }
        </style></defs><g id="SP7t4RboaeV"><g transform="translate(1170 -430)"><rect x="0" y="0" width="100" height="100" fill="rgb(85,170,97)" stroke="#2F7939" stroke-width="2" stroke-linecap="round" stroke-linejoin="round"/></g><g transform="translate(1199.56, -389) rotate(0, 20.44, 9)" width="40.88" height="18"><text text-decoration="none" x="2.4400000000000013" fill="#ffffff" font-size="10pt" font-family="noto_regular"  y="15">Admin</text><text text-decoration="none" x="38.44" fill="#4b4b4b" font-size="10pt" font-family="noto_regular"  y="15"></text></g></g><g id="8qGCUdI7wF2"><g transform="translate(1410.0000000000002 -299.99999999999994)"><ellipse cx="50" cy="50" rx="50" ry="50" fill="rgb(248,168,92)" stroke="#AD6520" stroke-width="2" stroke-linecap="round" stroke-linejoin="round"/></g><g transform="translate(1442.5300000000002, -258.99999999999994) rotate(0, 17.47, 9)" width="34.94" height="18"><text text-decoration="none" x="1.9699999999999989" fill="#ffffff" font-size="10pt" font-family="noto_regular"  y="15">Login</text><text text-decoration="none" x="32.97" fill="#4b4b4b" font-size="10pt" font-family="noto_regular"  y="15"></text></g></g><g id="aZsstc4aKPu"><mask id="14667" x="1256" y="-394" width="190" height="114" maskUnits="userSpaceOnUse"><rect x="1256" y="-394" width="190" height="114" fill="white" /><rect x="1340.22977965959" y="-392" width="107.22" height="24" fill="black" /></mask><g mask="url(#14667)"><path d="M 1270,-380 L 1431.6789600967352,-380 L 1432,-294" fill="none" stroke="#7E7E7E" stroke-width="2" stroke-linecap="round" stroke-linejoin="round"/><path d="M 1432,-294 L 1437.75,-302.69565217391306 L 1426.25,-302.69565217391306 Z" fill="rgb(126,126,126)" stroke="#7E7E7E" stroke-width="2" stroke-linecap="round" stroke-linejoin="round"/></g><g transform="translate(1343.22977965959, -389)" width="101.22" height="18"><text text-decoration="none" x="4.109999999999999" fill="#4b4b4b" font-size="10pt" font-family="noto_regular"  y="15">Login/Password</text><text text-decoration="none" x="97.11" fill="#4b4b4b" font-size="10pt" font-family="noto_regular"  y="15"></text></g></g><g id="ulDWz3mBql2"><g transform="translate(1550 -550)"><ellipse cx="50" cy="50" rx="50" ry="50" fill="rgb(248,168,92)" stroke="#AD6520" stroke-width="2" stroke-linecap="round" stroke-linejoin="round" stroke-dasharray="0 0"/></g><g transform="translate(1565.585, -536) rotate(0, 34.415, 36)" width="68.83" height="72"><text text-decoration="none" x="30.915" fill="#ffffff" font-size="10pt" font-family="noto_regular"  y="12">4</text><text text-decoration="none" x="37.915" fill="#ffffff" font-size="10pt" font-family="noto_regular"  y="12"></text><text text-decoration="none" x="2.414999999999999" fill="#ffffff" font-size="10pt" font-family="noto_regular"  y="28">Check&#160;</text><text text-decoration="none" x="41.415" fill="#ffffff" font-size="10pt" font-family="noto_regular"  y="28">user</text><text text-decoration="none" x="66.41499999999999" fill="#ffffff" font-size="10pt" font-family="noto_regular"  y="28"></text><text text-decoration="none" x="14.915" fill="#ffffff" font-size="10pt" font-family="noto_regular"  y="44">issue&#160;</text><text text-decoration="none" x="48.915" fill="#ffffff" font-size="10pt" font-family="noto_regular"  y="44">/&#160;</text><text text-decoration="none" x="17.915" fill="#ffffff" font-size="10pt" font-family="noto_regular"  y="63">return</text><text text-decoration="none" x="50.915" fill="#4b4b4b" font-size="10pt" font-family="noto_regular"  y="63"></text></g></g><g id="eB2irs2X20x"><mask id="0c886" x="1446" y="-514" width="118" height="228" maskUnits="userSpaceOnUse"><rect x="1446" y="-514" width="118" height="228" fill="white" /><rect x="1434.1550000000002" y="-456.9999999999999" width="51.69" height="24" fill="black" />undefinedundefinedundefinedundefinedundefined</mask><g mask="url(#0c886)"><path d="M 1460,-300 L 1460.0000000000002,-500 L 1550,-500" fill="none" stroke="#7E7E7E" stroke-width="2" stroke-linecap="round" stroke-linejoin="round"/><path d="M 1550,-500 L 1541.304347826087,-505.75 L 1541.304347826087,-494.25 Z" fill="rgb(126,126,126)" stroke="#7E7E7E" stroke-width="2" stroke-linecap="round" stroke-linejoin="round"/></g><g transform="translate(1437.1550000000002, -453.9999999999999)" width="45.69" height="18"><text text-decoration="none" x="2.344999999999999" fill="#4b4b4b" font-size="10pt" font-family="noto_regular"  y="15">Reg&#160;</text><text text-decoration="none" x="27.345" fill="#4b4b4b" font-size="10pt" font-family="noto_regular"  y="15">No</text><text text-decoration="none" x="43.345" fill="#4b4b4b" font-size="10pt" font-family="noto_regular"  y="15"></text></g>undefinedundefinedundefinedundefinedundefined</g><g id="61FY5Q4QoIj"><g transform="translate(1410 19.999999999999886)"><ellipse cx="50" cy="50" rx="50" ry="50" fill="rgb(248,168,92)" stroke="#AD6520" stroke-width="2" stroke-linecap="round" stroke-linejoin="round" stroke-dasharray="0 0"/></g><g transform="translate(1430.07, 42.99499999999989) rotate(0, 29.93, 27.005)" width="59.86" height="54.01"><text text-decoration="none" x="26.43" fill="#ffffff" font-size="10pt" font-family="noto_regular"  y="12">1</text><text text-decoration="none" x="33.43" fill="#ffffff" font-size="10pt" font-family="noto_regular"  y="12"></text><text text-decoration="none" x="3.4299999999999997" fill="#ffffff" font-size="10pt" font-family="noto_regular"  y="28">Add&#160;</text><text text-decoration="none" x="28.43" fill="#ffffff" font-size="10pt" font-family="noto_regular"  y="28">book&#160;</text><text text-decoration="none" x="18.93" fill="#ffffff" font-size="10pt" font-family="noto_regular"  y="47">info</text><text text-decoration="none" x="40.93" fill="#4b4b4b" font-size="10pt" font-family="noto_regular"  y="47"></text></g></g><g id="vp2EXZqvPwG"><mask id="e8cf1" x="1446" y="-214" width="28" height="248" maskUnits="userSpaceOnUse"><rect x="1446" y="-214" width="28" height="248" fill="white" /><rect x="1444.53" y="-102.00000000000001" width="30.94" height="24" fill="black" /></mask><g mask="url(#e8cf1)"><path d="M 1460,-200 L 1460.0000000000002,-100.00000000000003 Q 1460.0000000000002,-99.9999999999998 1460,-90 Q 1460,-80.00000000000006 1460,-80.00000000000003 L 1460,20" fill="none" stroke="#7E7E7E" stroke-width="2" stroke-linecap="round" stroke-linejoin="round"/><path d="M 1460,-200 L 1454.25,-191.30434782608697 L 1465.75,-191.30434782608697 Z" fill="rgb(126,126,126)" stroke="#7E7E7E" stroke-width="2" stroke-linecap="round" stroke-linejoin="round"/><path d="M 1460,20 L 1465.75,11.304347826086955 L 1454.25,11.304347826086955 Z" fill="rgb(126,126,126)" stroke="#7E7E7E" stroke-width="2" stroke-linecap="round" stroke-linejoin="round"/></g><g transform="translate(1447.53, -99.00000000000001)" width="24.94" height="18"><text text-decoration="none" x="1.4700000000000006" fill="#4b4b4b" font-size="10pt" font-family="noto_regular"  y="15">Add</text><text text-decoration="none" x="23.47" fill="#4b4b4b" font-size="10pt" font-family="noto_regular"  y="15"></text></g></g><g id="KNNULLmCpt9"><g transform="translate(1580 20)"><ellipse cx="50" cy="50" rx="50" ry="50" fill="rgb(248,168,92)" stroke="#AD6520" stroke-width="2" stroke-linecap="round" stroke-linejoin="round" stroke-dasharray="0 0"/></g><g transform="translate(1591.07, 42.995000000000005) rotate(0, 38.93, 27.005)" width="77.86" height="54.01"><text text-decoration="none" x="35.43" fill="#ffffff" font-size="10pt" font-family="noto_regular"  y="12">2</text><text text-decoration="none" x="42.43" fill="#ffffff" font-size="10pt" font-family="noto_regular"  y="12"></text><text text-decoration="none" x="2.9299999999999997" fill="#ffffff" font-size="10pt" font-family="noto_regular"  y="28">Search&#160;</text><text text-decoration="none" x="45.93" fill="#ffffff" font-size="10pt" font-family="noto_regular"  y="28">Book&#160;</text><text text-decoration="none" x="27.93" fill="#ffffff" font-size="10pt" font-family="noto_regular"  y="47">info</text><text text-decoration="none" x="49.93" fill="#4b4b4b" font-size="10pt" font-family="noto_regular"  y="47"></text></g></g><g id="BBrYrPy3so8"><mask id="d33bc" x="1496" y="-264" width="148" height="298" maskUnits="userSpaceOnUse"><rect x="1496" y="-264" width="148" height="298" fill="white" /><rect x="1605.765" y="-186.99999999999997" width="48.47" height="24" fill="black" /></mask><g mask="url(#d33bc)"><path d="M 1510,-250 L 1630,-249.99999999999994 L 1630,20" fill="none" stroke="#7E7E7E" stroke-width="2" stroke-linecap="round" stroke-linejoin="round"/><path d="M 1630,20 L 1635.75,11.304347826086955 L 1624.25,11.304347826086955 Z" fill="rgb(126,126,126)" stroke="#7E7E7E" stroke-width="2" stroke-linecap="round" stroke-linejoin="round"/></g><g transform="translate(1608.765, -183.99999999999997)" width="42.47" height="18"><text text-decoration="none" x="1.2349999999999994" fill="#4b4b4b" font-size="10pt" font-family="noto_regular"  y="15">Search</text><text text-decoration="none" x="41.235" fill="#4b4b4b" font-size="10pt" font-family="noto_regular"  y="15"></text></g></g><g id="iWvLsjAKIbn"><g transform="translate(1230 20)"><ellipse cx="50" cy="50" rx="50" ry="50" fill="rgb(248,168,92)" stroke="#AD6520" stroke-width="2" stroke-linecap="round" stroke-linejoin="round" stroke-dasharray="0 0"/></g><g transform="translate(1250.13, 42.995000000000005) rotate(0, 29.87, 27.005)" width="59.74" height="54.01"><text text-decoration="none" x="26.37" fill="#ffffff" font-size="10pt" font-family="noto_regular"  y="12">3</text><text text-decoration="none" x="33.370000000000005" fill="#ffffff" font-size="10pt" font-family="noto_regular"  y="12"></text><text text-decoration="none" x="9.870000000000001" fill="#ffffff" font-size="10pt" font-family="noto_regular"  y="28">Update</text><text text-decoration="none" x="49.870000000000005" fill="#ffffff" font-size="10pt" font-family="noto_regular"  y="28"></text><text text-decoration="none" x="2.870000000000001" fill="#ffffff" font-size="10pt" font-family="noto_regular"  y="47">Book&#160;</text><text text-decoration="none" x="34.870000000000005" fill="#ffffff" font-size="10pt" font-family="noto_regular"  y="47">info</text><text text-decoration="none" x="56.870000000000005" fill="#4b4b4b" font-size="10pt" font-family="noto_regular"  y="47"></text></g></g><g id="vYHD1ctoxgF"><mask id="dc5c2" x="1266" y="-264" width="158" height="298" maskUnits="userSpaceOnUse"><rect x="1266" y="-264" width="158" height="298" fill="white" /><rect x="1254.02" y="-191.99999999999997" width="51.96" height="24" fill="black" /></mask><g mask="url(#dc5c2)"><path d="M 1410,-250 L 1280,-249.99999999999994 L 1280,20" fill="none" stroke="#7E7E7E" stroke-width="2" stroke-linecap="round" stroke-linejoin="round"/><path d="M 1410,-250 L 1401.304347826087,-255.75 L 1401.304347826087,-244.25 Z" fill="rgb(126,126,126)" stroke="#7E7E7E" stroke-width="2" stroke-linecap="round" stroke-linejoin="round"/><path d="M 1280,20 L 1285.75,11.304347826086955 L 1274.25,11.304347826086955 Z" fill="rgb(126,126,126)" stroke="#7E7E7E" stroke-width="2" stroke-linecap="round" stroke-linejoin="round"/></g><g transform="translate(1257.02, -188.99999999999997)" width="45.96" height="18"><text text-decoration="none" x="2.9800000000000004" fill="#4b4b4b" font-size="10pt" font-family="noto_regular"  y="15">Update</text><text text-decoration="none" x="42.980000000000004" fill="#4b4b4b" font-size="10pt" font-family="noto_regular"  y="15"></text></g></g><g id="coV7hZgKvbw"><g transform="translate(2240 -550.0000000000001)"><rect x="0" y="0" width="100" height="100" fill="rgb(85,170,97)" stroke="#2F7939" stroke-width="2" stroke-linecap="round" stroke-linejoin="round" stroke-dasharray="0 0"/></g><g transform="translate(2260.825, -527.0050000000001) rotate(0, 29.175, 27.005)" width="58.35" height="54.01"><text text-decoration="none" x="25.675" fill="#ffffff" font-size="10pt" font-family="noto_regular"  y="12">5</text><text text-decoration="none" x="32.675" fill="#ffffff" font-size="10pt" font-family="noto_regular"  y="12"></text><text text-decoration="none" x="3.1750000000000007" fill="#ffffff" font-size="10pt" font-family="noto_regular"  y="28">Student&#160;</text><text text-decoration="none" x="50.175" fill="#ffffff" font-size="10pt" font-family="noto_regular"  y="28">/&#160;</text><text text-decoration="none" x="16.175" fill="#ffffff" font-size="10pt" font-family="noto_regular"  y="47">User</text><text text-decoration="none" x="42.175" fill="#4b4b4b" font-size="10pt" font-family="noto_regular"  y="47"></text></g></g><g id="EjJCtnEGZ0z"><mask id="265ae" x="1636" y="-514" width="618" height="28" maskUnits="userSpaceOnUse"><rect x="1636" y="-514" width="618" height="28" fill="white" /><rect x="1882" y="-512" width="126" height="24" fill="black" />undefinedundefined</mask><g mask="url(#265ae)"><path d="M 1650,-500 L 1935,-500 Q 1935,-500 1945,-500 Q 1955,-500.0000000000001 1955,-500.0000000000001 L 2240,-500" fill="none" stroke="#7E7E7E" stroke-width="2" stroke-linecap="round" stroke-linejoin="round"/><path d="M 1650,-500 L 1658.695652173913,-494.25 L 1658.695652173913,-505.75 Z" fill="rgb(126,126,126)" stroke="#7E7E7E" stroke-width="2" stroke-linecap="round" stroke-linejoin="round"/></g><g transform="translate(1885, -509.00000000000006)" width="120" height="18"><text text-decoration="none" x="6" fill="#4b4b4b" font-size="10pt" font-family="noto_regular"  y="15">Registered&#160;</text><text text-decoration="none" x="70" fill="#4b4b4b" font-size="10pt" font-family="noto_regular"  y="15">Student</text><text text-decoration="none" x="114" fill="#4b4b4b" font-size="10pt" font-family="noto_regular"  y="15"></text></g>undefinedundefined</g><g id="tlBECNwxEQk"><g transform="translate(2100.0000000000005 -390.0000000000001)"><ellipse cx="50" cy="50" rx="50" ry="50" fill="rgb(248,168,92)" stroke="#AD6520" stroke-width="2" stroke-linecap="round" stroke-linejoin="round" stroke-dasharray="0 0"/></g><g transform="translate(2124.1600000000003, -358.0050000000001) rotate(0, 25.84, 18.005)" width="51.68" height="36.01"><text text-decoration="none" x="22.34" fill="#ffffff" font-size="10pt" font-family="noto_regular"  y="12">6</text><text text-decoration="none" x="29.34" fill="#ffffff" font-size="10pt" font-family="noto_regular"  y="12"></text><text text-decoration="none" x="2.34" fill="#ffffff" font-size="10pt" font-family="noto_regular"  y="31">Register</text><text text-decoration="none" x="49.34" fill="#4b4b4b" font-size="10pt" font-family="noto_regular"  y="31"></text></g></g><g id="byiJcdn5djp"><mask id="e5ed2" x="2136" y="-464" width="168" height="88" maskUnits="userSpaceOnUse"><rect x="2136" y="-464" width="168" height="88" fill="white" /><rect x="2176.63" y="-432" width="86.74" height="24" fill="black" /></mask><g mask="url(#e5ed2)"><path d="M 2150,-390 L 2150,-420 L 2220,-420 L 2290,-420 L 2290,-450" fill="none" stroke="#7E7E7E" stroke-width="2" stroke-linecap="round" stroke-linejoin="round"/><path d="M 2150,-390 L 2155.75,-398.69565217391306 L 2144.25,-398.69565217391306 Z" fill="rgb(126,126,126)" stroke="#7E7E7E" stroke-width="2" stroke-linecap="round" stroke-linejoin="round"/></g><g transform="translate(2179.63, -429)" width="80.74" height="18"><text text-decoration="none" x="3.8699999999999974" fill="#4b4b4b" font-size="10pt" font-family="noto_regular"  y="15">New&#160;</text><text text-decoration="none" x="32.87" fill="#4b4b4b" font-size="10pt" font-family="noto_regular"  y="15">Student</text><text text-decoration="none" x="76.87" fill="#4b4b4b" font-size="10pt" font-family="noto_regular"  y="15"></text></g></g><g id="qMiV1X3pz6O"><g transform="translate(2100 -199.99999999999994)"><ellipse cx="50" cy="50" rx="50" ry="50" fill="rgb(248,168,92)" stroke="#AD6520" stroke-width="2" stroke-linecap="round" stroke-linejoin="round" stroke-dasharray="0 0"/></g><g transform="translate(2119.585, -177.00499999999994) rotate(0, 30.415, 27.005)" width="60.83" height="54.01"><text text-decoration="none" x="26.915" fill="#ffffff" font-size="10pt" font-family="noto_regular"  y="12">7</text><text text-decoration="none" x="33.915" fill="#ffffff" font-size="10pt" font-family="noto_regular"  y="12"></text><text text-decoration="none" x="2.914999999999999" fill="#ffffff" font-size="10pt" font-family="noto_regular"  y="28">User&#160;</text><text text-decoration="none" x="31.915" fill="#ffffff" font-size="10pt" font-family="noto_regular"  y="28">view&#160;</text><text text-decoration="none" x="5.414999999999999" fill="#ffffff" font-size="10pt" font-family="noto_regular"  y="47">the&#160;</text><text text-decoration="none" x="26.415" fill="#ffffff" font-size="10pt" font-family="noto_regular"  y="47">Book</text><text text-decoration="none" x="55.415" fill="#4b4b4b" font-size="10pt" font-family="noto_regular"  y="47"></text></g></g><g id="5gT1BHeLmOx"><mask id="d5474" x="2136" y="-304" width="28" height="118" maskUnits="userSpaceOnUse"><rect x="2136" y="-304" width="28" height="118" fill="white" /><rect x="2124.155" y="-257" width="51.69" height="24" fill="black" /></mask><g mask="url(#d5474)"><path d="M 2150,-290 L 2150.0000000000005,-255.00000000000003 Q 2150.0000000000005,-254.99999999999957 2150,-245 Q 2150,-235.00000000000006 2150,-235.00000000000003 L 2150,-200" fill="none" stroke="#7E7E7E" stroke-width="2" stroke-linecap="round" stroke-linejoin="round"/><path d="M 2150,-200 L 2155.75,-208.69565217391303 L 2144.25,-208.69565217391303 Z" fill="rgb(126,126,126)" stroke="#7E7E7E" stroke-width="2" stroke-linecap="round" stroke-linejoin="round"/></g><g transform="translate(2127.155, -254)" width="45.69" height="18"><text text-decoration="none" x="2.344999999999999" fill="#4b4b4b" font-size="10pt" font-family="noto_regular"  y="15">Reg&#160;</text><text text-decoration="none" x="27.345" fill="#4b4b4b" font-size="10pt" font-family="noto_regular"  y="15">No</text><text text-decoration="none" x="43.345" fill="#4b4b4b" font-size="10pt" font-family="noto_regular"  y="15"></text></g></g><g id="iSUwSoGRQfg"><g transform="translate(2100 19.999999999999886)"><ellipse cx="50" cy="50" rx="50" ry="50" fill="rgb(248,168,92)" stroke="#AD6520" stroke-width="2" stroke-linecap="round" stroke-linejoin="round" stroke-dasharray="0 0"/></g><g transform="translate(2122.78, 42.99499999999989) rotate(0, 27.22, 27.005)" width="54.44" height="54.01"><text text-decoration="none" x="23.72" fill="#ffffff" font-size="10pt" font-family="noto_regular"  y="12">8</text><text text-decoration="none" x="30.72" fill="#ffffff" font-size="10pt" font-family="noto_regular"  y="12"></text><text text-decoration="none" x="2.219999999999999" fill="#ffffff" font-size="10pt" font-family="noto_regular"  y="28">Request&#160;</text><text text-decoration="none" x="52.22" fill="#ffffff" font-size="10pt" font-family="noto_regular"  y="28"></text><text text-decoration="none" x="12.719999999999999" fill="#ffffff" font-size="10pt" font-family="noto_regular"  y="47">Book</text><text text-decoration="none" x="41.72" fill="#4b4b4b" font-size="10pt" font-family="noto_regular"  y="47"></text></g></g><g id="WhRSnCin9He"><mask id="aeaa7" x="2136" y="-114" width="28" height="148" maskUnits="userSpaceOnUse"><rect x="2136" y="-114" width="28" height="148" fill="white" /><rect x="2118.855" y="-52" width="62.29" height="24" fill="black" /></mask><g mask="url(#aeaa7)"><path d="M 2150,-100 L 2150,20" fill="none" stroke="#7E7E7E" stroke-width="2" stroke-linecap="round" stroke-linejoin="round"/><path d="M 2150,20 L 2155.75,11.304347826086955 L 2144.25,11.304347826086955 Z" fill="rgb(126,126,126)" stroke="#7E7E7E" stroke-width="2" stroke-linecap="round" stroke-linejoin="round"/></g><g transform="translate(2121.855, -49)" width="56.29" height="18"><text text-decoration="none" x="2.6449999999999996" fill="#4b4b4b" font-size="10pt" font-family="noto_regular"  y="15">Available</text><text text-decoration="none" x="53.644999999999996" fill="#4b4b4b" font-size="10pt" font-family="noto_regular"  y="15"></text></g></g><g id="rEE1z4OGZn7"><g transform="translate(2450 19.999999999999886)"><ellipse cx="50" cy="50" rx="50" ry="50" fill="rgb(248,168,92)" stroke="#AD6520" stroke-width="2" stroke-linecap="round" stroke-linejoin="round" stroke-dasharray="0 0"/></g><g transform="translate(2478.695, 42.99499999999989) rotate(0, 21.305, 27.005)" width="42.61" height="54.01"><text text-decoration="none" x="17.805" fill="#ffffff" font-size="10pt" font-family="noto_regular"  y="12">9</text><text text-decoration="none" x="24.805" fill="#ffffff" font-size="10pt" font-family="noto_regular"  y="12"></text><text text-decoration="none" x="6.805" fill="#ffffff" font-size="10pt" font-family="noto_regular"  y="28">Book</text><text text-decoration="none" x="35.805" fill="#ffffff" font-size="10pt" font-family="noto_regular"  y="28"></text><text text-decoration="none" x="2.8049999999999997" fill="#ffffff" font-size="10pt" font-family="noto_regular"  y="47">Return</text><text text-decoration="none" x="39.805" fill="#4b4b4b" font-size="10pt" font-family="noto_regular"  y="47"></text></g></g><g id="lMPe5ERcvS8"><mask id="f4023" x="2186" y="56" width="278" height="28" maskUnits="userSpaceOnUse"><rect x="2186" y="56" width="278" height="28" fill="white" /><rect x="2292.74" y="58" width="64.52000000000001" height="24" fill="black" /></mask><g mask="url(#f4023)"><path d="M 2200,70 L 2450,70" fill="none" stroke="#7E7E7E" stroke-width="2" stroke-linecap="round" stroke-linejoin="round"/><path d="M 2450,70 L 2441.304347826087,64.25 L 2441.304347826087,75.75 Z" fill="rgb(126,126,126)" stroke="#7E7E7E" stroke-width="2" stroke-linecap="round" stroke-linejoin="round"/></g><g transform="translate(2295.74, 61)" width="58.52" height="18"><text text-decoration="none" x="2.7600000000000016" fill="#4b4b4b" font-size="10pt" font-family="noto_regular"  y="15">Due&#160;</text><text text-decoration="none" x="28.76" fill="#4b4b4b" font-size="10pt" font-family="noto_regular"  y="15">Date</text><text text-decoration="none" x="55.760000000000005" fill="#4b4b4b" font-size="10pt" font-family="noto_regular"  y="15"></text></g></g><g id="m0nYWB1IaeQ"><g transform="translate(2450 -199.99999999999994)"><ellipse cx="50" cy="50" rx="50" ry="50" fill="rgb(248,168,92)" stroke="#AD6520" stroke-width="2" stroke-linecap="round" stroke-linejoin="round" stroke-dasharray="0 0"/></g><g transform="translate(2469.655, -177.00499999999994) rotate(0, 30.345, 27.005)" width="60.69" height="54.01"><text text-decoration="none" x="23.345" fill="#ffffff" font-size="10pt" font-family="noto_regular"  y="12">10</text><text text-decoration="none" x="37.345" fill="#ffffff" font-size="10pt" font-family="noto_regular"  y="12"></text><text text-decoration="none" x="2.344999999999999" fill="#ffffff" font-size="10pt" font-family="noto_regular"  y="28">Calculate&#160;</text><text text-decoration="none" x="58.345" fill="#ffffff" font-size="10pt" font-family="noto_regular"  y="28"></text><text text-decoration="none" x="18.345" fill="#ffffff" font-size="10pt" font-family="noto_regular"  y="47">Fine</text><text text-decoration="none" x="42.345" fill="#4b4b4b" font-size="10pt" font-family="noto_regular"  y="47"></text></g></g><g id="irTtfaQYEQz"><mask id="aa8c3" x="2486" y="-114" width="28" height="148" maskUnits="userSpaceOnUse"><rect x="2486" y="-114" width="28" height="148" fill="white" /><rect x="2461.31" y="-52" width="77.38" height="24" fill="black" />undefinedundefined</mask><g mask="url(#aa8c3)"><path d="M 2500,20 L 2500,-100" fill="none" stroke="#7E7E7E" stroke-width="2" stroke-linecap="round" stroke-linejoin="round"/><path d="M 2500,-100 L 2494.25,-91.30434782608695 L 2505.75,-91.30434782608695 Z" fill="rgb(126,126,126)" stroke="#7E7E7E" stroke-width="2" stroke-linecap="round" stroke-linejoin="round"/></g><g transform="translate(2464.31, -49)" width="71.38" height="18"><text text-decoration="none" x="4.189999999999998" fill="#4b4b4b" font-size="10pt" font-family="noto_regular"  y="15">Data&#160;</text><text text-decoration="none" x="34.19" fill="#4b4b4b" font-size="10pt" font-family="noto_regular"  y="15">Expiry</text><text text-decoration="none" x="67.19" fill="#4b4b4b" font-size="10pt" font-family="noto_regular"  y="15"></text></g>undefinedundefined</g><g id="fkfanSafuYk"><g><path d="M 2416,-381 L 2491.2058645707366,-381 Q 2491.411729141473,-381 2501,-381 Q 2510.9877863768443,-381.0636469536168 2511.2058609710803,-381.06346191996806 L 2586,-381" fill="none" stroke="#7E7E7E" stroke-width="2" stroke-linecap="round" stroke-linejoin="round" stroke-dasharray="5 5"/></g></g><g id="2CYXkRFgid1"><g><path d="M 2415,-419 L 2490.2058645707375,-419.00000000000006 Q 2490.411729141475,-419.00000000000006 2500,-419 Q 2509.9877863768443,-419.06364695361685 2510.205860971081,-419.0634619199681 L 2585,-419" fill="none" stroke="#7E7E7E" stroke-width="2" stroke-linecap="round" stroke-linejoin="round" stroke-dasharray="5 5"/></g></g><g id="5VPu4BzsIoW"><g transform="translate(2440 -420)"><rect x="0" y="0" width="120" height="40" fill="rgba(255,255,255,0.01)" stroke="rgba(255,255,255,0.01)"/></g><g transform="translate(2466.905, -410) rotate(0, 33.095, 0)" width="66.19" height="18"><text text-decoration="none" x="3.094999999999999" fill="#4b4b4b" font-size="10pt" font-family="noto_regular"  y="15">Data&#160;</text><text text-decoration="none" x="33.095" fill="#4b4b4b" font-size="10pt" font-family="noto_regular"  y="15">Store</text><text text-decoration="none" x="63.095" fill="#4b4b4b" font-size="10pt" font-family="noto_regular"  y="15"></text></g></g><g id="tZb5AuHJNft"><mask id="9afea" x="2486" y="-394" width="28" height="208" maskUnits="userSpaceOnUse"><rect x="2486" y="-394" width="28" height="208" fill="white" />undefined</mask><g mask="url(#9afea)"><path d="M 2500,-200 L 2500,-380" fill="none" stroke="#7E7E7E" stroke-width="2" stroke-linecap="round" stroke-linejoin="round"/><path d="M 2500,-380 L 2494.25,-371.30434782608694 L 2505.75,-371.30434782608694 Z" fill="rgb(126,126,126)" stroke="#7E7E7E" stroke-width="2" stroke-linecap="round" stroke-linejoin="round"/></g>undefined</g><g id="VM0C4Jk9eSb"><mask id="66566" x="2186" y="-394" width="294" height="68" maskUnits="userSpaceOnUse"><rect x="2186" y="-394" width="294" height="68" fill="white" /><rect x="2274.917394195887" y="-352" width="51.69" height="24" fill="black" />undefinedundefined</mask><g mask="url(#66566)"><path d="M 2466,-380 L 2466,-340 L 2200,-340" fill="none" stroke="#7E7E7E" stroke-width="2" stroke-linecap="round" stroke-linejoin="round"/><path d="M 2466,-380 L 2460.25,-371.30434782608694 L 2471.75,-371.30434782608694 Z" fill="rgb(126,126,126)" stroke="#7E7E7E" stroke-width="2" stroke-linecap="round" stroke-linejoin="round"/></g><g transform="translate(2277.917394195887, -349)" width="45.69" height="18"><text text-decoration="none" x="2.344999999999999" fill="#4b4b4b" font-size="10pt" font-family="noto_regular"  y="15">Reg&#160;</text><text text-decoration="none" x="27.345" fill="#4b4b4b" font-size="10pt" font-family="noto_regular"  y="15">No</text><text text-decoration="none" x="43.345" fill="#4b4b4b" font-size="10pt" font-family="noto_regular"  y="15"></text></g>undefinedundefined</g><g id="ucUN7Beo2hi"><g><path d="M 2421,278 L 2496.2058646523,277.99039451670336 Q 2496.412016669357,277.9903681864462 2506,278 Q 2515.9839568901916,277.92672203532885 2516.2058597997484,277.926938796876 L 2591,278" fill="none" stroke="#7E7E7E" stroke-width="2" stroke-linecap="round" stroke-linejoin="round" stroke-dasharray="5 5"/></g></g><g id="3u1SjPG1KOV"><g><path d="M 2420,240 L 2495.205864652302,239.99039451670336 Q 2495.4120166693606,239.9903681864462 2505,240 Q 2514.9839568901916,239.9267220353288 2515.20585979975,239.92693879687596 L 2590,240" fill="none" stroke="#7E7E7E" stroke-width="2" stroke-linecap="round" stroke-linejoin="round" stroke-dasharray="5 5"/></g></g><g id="UhVGX0iaHk1"><g transform="translate(2439.999999999999 241.9999999999999)"><rect x="0" y="0" width="120" height="40" fill="rgba(255,255,255,0.01)" stroke="rgba(255,255,255,0.01)"/></g><g transform="translate(2468.489999999999, 251.9999999999999) rotate(0, 31.51, 0)" width="63.02" height="18"><text text-decoration="none" x="2.0100000000000016" fill="#4b4b4b" font-size="10pt" font-family="noto_regular"  y="15">Data&#160;</text><text text-decoration="none" x="32.010000000000005" fill="#4b4b4b" font-size="10pt" font-family="noto_regular"  y="15">Base</text><text text-decoration="none" x="61.010000000000005" fill="#4b4b4b" font-size="10pt" font-family="noto_regular"  y="15"></text></g></g><g id="OJyaS9VFlFm"><g><path d="M 2473,242 L 2476,114" fill="none" stroke="#7E7E7E" stroke-width="2" stroke-linecap="round" stroke-linejoin="round"/><path d="M 2473,242 L 2478.907597050318,233.4106365881546 L 2467.409508876273,233.2009502941962 Z" fill="rgb(126,126,126)" stroke="#7E7E7E" stroke-width="2" stroke-linecap="round" stroke-linejoin="round"/></g></g><g id="iYz0rZnX3Nf"><g><path d="M 2500,120 L 2500,170.9999999999999 Q 2500,171 2500,181 Q 2499.999999999999,190.99999999999898 2499.999999999999,190.9999999999999 L 2500,242" fill="none" stroke="#7E7E7E" stroke-width="2" stroke-linecap="round" stroke-linejoin="round"/><path d="M 2500,120 L 2494.25,128.69565217391303 L 2505.75,128.69565217391303 Z" fill="rgb(126,126,126)" stroke="#7E7E7E" stroke-width="2" stroke-linecap="round" stroke-linejoin="round"/></g></g><g id="4LPZpoqXOLL"><g><path d="M 1891,-132 L 1966.2058646522996,-132.00960548329678 Q 1966.4120166693563,-132.00963181355394 1976,-132 Q 1985.9839568901916,-132.07327796467132 1986.205859799748,-132.07306120312415 L 2061,-132" fill="none" stroke="#7E7E7E" stroke-width="2" stroke-linecap="round" stroke-linejoin="round" stroke-dasharray="5 5"/></g></g><g id="s7FPeFln7jX"><g><path d="M 1890,-170 L 1965.205864652302,-170.00960548329678 Q 1965.4120166693608,-170.00963181355394 1975,-170 Q 1984.9839568901916,-170.07327796467138 1985.2058597997502,-170.0730612031242 L 2060,-170" fill="none" stroke="#7E7E7E" stroke-width="2" stroke-linecap="round" stroke-linejoin="round" stroke-dasharray="5 5"/></g></g><g id="fix0dF7fhHA"><g transform="translate(1909.999999999999 -168.00000000000017)"><rect x="0" y="0" width="120" height="40" fill="rgba(255,255,255,0.01)" stroke="rgba(255,255,255,0.01)"/></g><g transform="translate(1938.489999999999, -158.00000000000017) rotate(0, 31.51, 0)" width="63.02" height="18"><text text-decoration="none" x="2.0100000000000016" fill="#4b4b4b" font-size="10pt" font-family="noto_regular"  y="15">Data&#160;</text><text text-decoration="none" x="32.010000000000005" fill="#4b4b4b" font-size="10pt" font-family="noto_regular"  y="15">Base</text><text text-decoration="none" x="61.010000000000005" fill="#4b4b4b" font-size="10pt" font-family="noto_regular"  y="15"></text></g></g><g id="yy7XPhivswf"><g><path d="M 2100,-150 L 2085,-149.99999999999997 Q 2085,-149.99999999999997 2075,-150 Q 2065,-150 2065,-150 L 2050,-150" fill="none" stroke="#7E7E7E" stroke-width="2" stroke-linecap="round" stroke-linejoin="round"/><path d="M 2050,-150 L 2058.695652173913,-144.25 L 2058.695652173913,-155.75 Z" fill="rgb(126,126,126)" stroke="#7E7E7E" stroke-width="2" stroke-linecap="round" stroke-linejoin="round"/></g></g><g id="caWBoAPEr9U"><g><path d="M 2100,-164 L 2086.4990983343314,-163.81868659678796 Q 2085.907879760494,-163.81074669363784 2077,-164 Q 2067,-164 2066.5,-164 L 2053,-164" fill="none" stroke="#7E7E7E" stroke-width="2" stroke-linecap="round" stroke-linejoin="round"/><path d="M 2100,-164 L 2091.304347826087,-169.75 L 2091.304347826087,-158.25 Z" fill="rgb(126,126,126)" stroke="#7E7E7E" stroke-width="2" stroke-linecap="round" stroke-linejoin="round"/></g></g><g id="V92cFDmYFVZ"><g><path d="M 1511,-352 L 1586.20586465228,-352.0096054832952 Q 1586.412016669317,-352.00963181355235 1596,-352 Q 1605.983956890191,-352.0732779646698 1606.2058597997284,-352.0730612031226 L 1681,-352" fill="none" stroke="#7E7E7E" stroke-width="2" stroke-linecap="round" stroke-linejoin="round" stroke-dasharray="5 5"/></g></g><g id="05aivLr9xdo"><g><path d="M 1510,-390 L 1585.2058646522835,-390.00960548329283 Q 1585.4120166693237,-390.00963181354996 1595,-390 Q 1604.983956890192,-390.07327796466734 1605.2058597997318,-390.0730612031202 L 1680,-390" fill="none" stroke="#7E7E7E" stroke-width="2" stroke-linecap="round" stroke-linejoin="round" stroke-dasharray="5 5"/></g></g><g id="0xRg28e8wB8"><g transform="translate(1540 -390)"><rect x="0" y="0" width="120" height="40" fill="rgba(255,255,255,0.01)" stroke="rgba(255,255,255,0.01)"/></g><g transform="translate(1568.49, -380) rotate(0, 31.51, 0)" width="63.02" height="18"><text text-decoration="none" x="2.0100000000000016" fill="#4b4b4b" font-size="10pt" font-family="noto_regular"  y="15">Data&#160;</text><text text-decoration="none" x="32.010000000000005" fill="#4b4b4b" font-size="10pt" font-family="noto_regular"  y="15">Base</text><text text-decoration="none" x="61.010000000000005" fill="#4b4b4b" font-size="10pt" font-family="noto_regular"  y="15"></text></g></g><g id="acHaPWVd1wf"><mask id="a908f" x="1636" y="-514" width="128" height="28" maskUnits="userSpaceOnUse"><rect x="1636" y="-514" width="128" height="28" fill="white" />undefined</mask><g mask="url(#a908f)"><path d="M 1650,-500 L 1750,-500" fill="none" stroke="#7E7E7E" stroke-width="2" stroke-linecap="round" stroke-linejoin="round"/></g>undefined</g><g id="lzpJq3viIGW"><g><path d="M 1600,-390 L 1600,-450" fill="none" stroke="#7E7E7E" stroke-width="2" stroke-linecap="round" stroke-linejoin="round"/><path d="M 1600,-450 L 1594.25,-441.30434782608694 L 1605.75,-441.30434782608694 Z" fill="rgb(126,126,126)" stroke="#7E7E7E" stroke-width="2" stroke-linecap="round" stroke-linejoin="round"/></g></g><g id="ncffsKBJICG"><g><path d="M 1576,-458 L 1576.0970343561664,-433.86751287494485 Q 1576.0978011421134,-433.67681287211826 1576,-424 Q 1576.097492748736,-414.05837579717513 1576.0967199673455,-413.8676758185501 L 1576,-390" fill="none" stroke="#7E7E7E" stroke-width="2" stroke-linecap="round" stroke-linejoin="round"/><path d="M 1576,-390 L 1581.75,-398.69565217391306 L 1570.25,-398.69565217391306 Z" fill="rgb(126,126,126)" stroke="#7E7E7E" stroke-width="2" stroke-linecap="round" stroke-linejoin="round"/></g></g><g id="gQhvacwy5tw"><g><path d="M 1234,238 L 1453.382687952899,237.9895917260231 Q 1453.765530601642,237.98957356264285 1463,238 Q 1472.9911380908632,237.92066699238705 1473.3826872795357,237.92080947638746 L 1691,238" fill="none" stroke="#7E7E7E" stroke-width="2" stroke-linecap="round" stroke-linejoin="round" stroke-dasharray="5 5"/></g></g><g id="5iMkNUIN3lo"><g><path d="M 1230,200 L 1449.2087585056488,199.98959208603617 Q 1449.4178004684752,199.9895821608362 1459,200 Q 1468.9841674748998,199.9207250322546 1469.208757833279,199.92080669785298 L 1687,200" fill="none" stroke="#7E7E7E" stroke-width="2" stroke-linecap="round" stroke-linejoin="round" stroke-dasharray="5 5"/></g></g><g id="ryEsjp7UUh8"><g transform="translate(1283.801169590639 201.9999999999999)"><rect x="0" y="0" width="322.80701754385956" height="40" fill="rgba(255,255,255,0.01)" stroke="rgba(255,255,255,0.01)"/></g><g transform="translate(1413.6946783625688, 211.9999999999999) rotate(0, 31.51, 0)" width="63.02" height="18"><text text-decoration="none" x="2.0100000000000016" fill="#4b4b4b" font-size="10pt" font-family="noto_regular"  y="15">Data&#160;</text><text text-decoration="none" x="32.010000000000005" fill="#4b4b4b" font-size="10pt" font-family="noto_regular"  y="15">Base</text><text text-decoration="none" x="61.010000000000005" fill="#4b4b4b" font-size="10pt" font-family="noto_regular"  y="15"></text></g></g><g id="SmJ4OcnwW4b"><mask id="cb53e" x="1266" y="106" width="28" height="104" maskUnits="userSpaceOnUse"><rect x="1266" y="106" width="28" height="104" fill="white" /><rect x="1226.9136347625708" y="145.89109708619588" width="105.8" height="24" fill="black" /></mask><g mask="url(#cb53e)"><path d="M 1280,120 L 1280,147.85550181378375 Q 1280,148 1280,158 Q 1279.8156896840715,167.56889451770425 1279.817546310926,167.85529169343647 L 1280,196" fill="none" stroke="#7E7E7E" stroke-width="2" stroke-linecap="round" stroke-linejoin="round"/><path d="M 1280,196 L 1285.75,187.30434782608697 L 1274.25,187.30434782608697 Z" fill="rgb(126,126,126)" stroke="#7E7E7E" stroke-width="2" stroke-linecap="round" stroke-linejoin="round"/></g><g transform="translate(1229.9136347625708, 148.89109708619588)" width="99.8" height="18"><text text-decoration="none" x="4.899999999999999" fill="#4b4b4b" font-size="10pt" font-family="noto_regular"  y="15">Update&#160;</text><text text-decoration="none" x="47.9" fill="#4b4b4b" font-size="10pt" font-family="noto_regular"  y="15">Records</text><text text-decoration="none" x="94.9" fill="#4b4b4b" font-size="10pt" font-family="noto_regular"  y="15"></text></g></g><g id="hjeQpG8eGsz"><mask id="d5c6b" x="1445" y="106" width="29" height="110" maskUnits="userSpaceOnUse"><rect x="1445" y="106" width="29" height="110" fill="white" /><rect x="1412.668974565827" y="148.99999999999994" width="94.11" height="24" fill="black" /></mask><g mask="url(#d5c6b)"><path d="M 1460,120 L 1460,150.9999999999999 Q 1460,151 1460,161 Q 1459.3466077731837,170.44985297894394 1459.34057052426,170.99939660109635 L 1459,202" fill="none" stroke="#7E7E7E" stroke-width="2" stroke-linecap="round" stroke-linejoin="round"/><path d="M 1459,202 L 1464.75,193.30434782608697 L 1453.25,193.30434782608697 Z" fill="rgb(126,126,126)" stroke="#7E7E7E" stroke-width="2" stroke-linecap="round" stroke-linejoin="round"/></g><g transform="translate(1415.668974565827, 151.99999999999994)" width="88.11" height="18"><text text-decoration="none" x="4.555" fill="#4b4b4b" font-size="10pt" font-family="noto_regular"  y="15">Added&#160;</text><text text-decoration="none" x="43.555" fill="#4b4b4b" font-size="10pt" font-family="noto_regular"  y="15">Record</text><text text-decoration="none" x="83.555" fill="#4b4b4b" font-size="10pt" font-family="noto_regular"  y="15"></text></g></g><g id="3zt7vAUgMAz"><mask id="91edc" x="1616" y="106" width="28" height="108" maskUnits="userSpaceOnUse"><rect x="1616" y="106" width="28" height="108" fill="white" /><rect x="1577.5" y="148.1506787998552" width="105" height="24" fill="black" /></mask><g mask="url(#91edc)"><path d="M 1630,200 L 1629.860106619656,170.18912810520462 Q 1629.8588587576376,169.9232123436128 1630,160 Q 1630,150.378476420796 1630,150.189238210398 L 1630,120" fill="none" stroke="#7E7E7E" stroke-width="2" stroke-linecap="round" stroke-linejoin="round"/><path d="M 1630,200 L 1635.75,191.30434782608697 L 1624.25,191.30434782608697 Z" fill="rgb(126,126,126)" stroke="#7E7E7E" stroke-width="2" stroke-linecap="round" stroke-linejoin="round"/></g><g transform="translate(1580.5, 151.1506787998552)" width="99" height="18"><text text-decoration="none" x="3.5" fill="#4b4b4b" font-size="10pt" font-family="noto_regular"  y="15">Viewed&#160;</text><text text-decoration="none" x="48.5" fill="#4b4b4b" font-size="10pt" font-family="noto_regular"  y="15">Records</text><text text-decoration="none" x="95.5" fill="#4b4b4b" font-size="10pt" font-family="noto_regular"  y="15"></text></g></g></svg>